<?xml version="1.0" standalone="no"?><!DOCTYPE svg PUBLIC "-//W3C//DTD SVG 1.1//EN" "http://www.w3.org/Graphics/SVG/1.1/DTD/svg11.dtd"><svg t="1544090841926" class="icon" style="" viewBox="0 0 1024 1024" version="1.1" xmlns="http://www.w3.org/2000/svg" p-id="739" xmlns:xlink="http://www.w3.org/1999/xlink" width="32" height="32"><defs><style type="text/css"></style></defs><path d="M960.4 447c-7.6-98.5-50.3-191.3-120.4-261.3S677.1 72.9 578.7 65.3c-9.9-0.8-19.7 2.6-27 9.3-7.4 6.7-11.6 16.4-11.6 26.4 0 18.6 14.5 34.4 33 35.8 36.6 2.8 72.5 11.5 106.7 25.9 40.9 17.2 77.6 42 109.3 73.7s56.5 68.5 73.7 109.3c14.3 34.1 23.1 70 25.9 106.7 1.5 18.5 17.2 33 35.8 33 10 0 19.7-4.2 26.6-11.4C957.8 466.7 961.2 456.8 960.4 447z" p-id="740" fill="#108ee9"></path></svg>